<?xml version="1.0" encoding="UTF-8"?>
<svg id="Layer_1" data-name="Layer 1" xmlns="http://www.w3.org/2000/svg" viewBox="0 0 96 42.75">
  <defs>
    <style>
      .cls-1 {
        fill: #fff;
      }
    </style>
  </defs>
  <path class="cls-1" d="m1.4,13.24V1.49h11c1.27-.02,2.53.19,3.72.63,1.08.47,1.95,1.31,2.46,2.36l.13.24c.42.7.73,1.24.87,8.52h1.22c-.16-8.19-.54-8.26-1.16-9.36-.65-1.3-1.74-2.33-3.07-2.9-1.33-.49-2.75-.74-4.17-.71H.18v13l1.22-.03Z"/>
  <path class="cls-1" d="m19.51,27.34c-.26,2.16-.85,3.72-1.76,4.54-1.35,1.21-3.12,1.85-4.93,1.78-1.07,0-2.14-.11-3.19-.33l-1.93-.39-1.47-.3v8.67H1.4v-14H.18v15.22h7.27v-8.4l1.94.4c1.13.23,2.28.35,3.43.35,2.12.07,4.18-.69,5.75-2.1,1.17-1.06,1.89-2.87,2.17-5.44h-1.23Z"/>
  <path class="cls-1" d="m7.49,20.59c.58-.5.88-1.24.81-2,.04-.71-.1-1.41-.39-2.06-.27-.48-.72-.84-1.25-1-.76-.22-1.56-.32-2.35-.29-.88-.04-1.77.11-2.59.44-.62.3-1.09.83-1.32,1.48-.31,1-.44,2.04-.4,3.08-.04,1.02.11,2.03.43,3,.23.67.73,1.23,1.37,1.54.83.32,1.71.47,2.6.43.61,0,1.22-.03,1.82-.11.53-.07,1.11-.17,1.75-.31v-1.58h-2.85c-.51.02-1.01-.04-1.5-.19-.31-.1-.57-.33-.71-.62-.15-.39-.23-.8-.23-1.21h2.45c.83.05,1.66-.16,2.36-.6Zm-4.85-1c-.02-.5.04-1,.16-1.49.07-.3.26-.57.52-.74.31-.16.65-.23,1-.21.44-.04.88.07,1.24.32.28.3.41.71.37,1.12.03.28-.06.56-.25.77-.23.17-.52.26-.81.23h-2.23Z"/>
  <path class="cls-1" d="m13.18,22.97c-.34-.18-.6-.49-.72-.86-.17-.6-.25-1.23-.22-1.85-.02-.64.05-1.28.22-1.89.12-.38.37-.71.72-.91.43-.19.9-.28,1.37-.25h2.57v-1.55c-1.11-.31-2.26-.46-3.41-.46-.8-.03-1.59.13-2.31.46-.65.33-1.14.88-1.4,1.56-.36.98-.52,2.02-.48,3.06-.14,1.37.25,2.74,1.08,3.84.8.77,1.89,1.17,3,1.11.65,0,1.29-.05,1.93-.14.57-.08,1.14-.2,1.69-.37v-1.53h-2.64c-.48.02-.95-.05-1.4-.22Z"/>
  <path class="cls-1" d="m25.33,15.65c-.84-.33-1.74-.49-2.64-.45-.89-.03-1.78.11-2.62.43-.65.29-1.16.84-1.41,1.51-.34.99-.49,2.03-.45,3.07-.04,1.02.11,2.04.45,3,.25.68.76,1.24,1.41,1.55.83.34,1.72.5,2.62.46.9.04,1.81-.11,2.65-.44.65-.31,1.16-.86,1.41-1.53.32-.97.47-1.98.43-3,.04-1.02-.11-2.04-.44-3-.24-.7-.75-1.27-1.41-1.6Zm-1,6.42c-.06.33-.26.62-.55.8-.69.27-1.44.27-2.13,0-.28-.18-.48-.47-.54-.8-.15-.61-.22-1.23-.19-1.86-.03-.63.04-1.26.19-1.87.07-.33.26-.61.54-.8.33-.15.7-.21,1.06-.19.37-.02.73.04,1.07.19.28.18.48.47.55.8.14.61.2,1.24.18,1.87.02.63-.05,1.25-.2,1.86h.02Z"/>
  <path class="cls-1" d="m40.57,15.18c-.61.01-1.21.15-1.76.41-.59.27-1.15.61-1.66,1-.21-.42-.54-.77-.95-1-.46-.26-.98-.4-1.51-.38-.6-.01-1.2.09-1.76.3-.54.22-1.04.51-1.5.87l-.47-1h-2.22v9.77h2.69v-6.82c.58-.44,1.27-.7,2-.73.37-.01.73.12,1,.37.27.28.41.67.38,1.06v6.09h2.69v-6c-.01-.24-.03-.47-.07-.71.31-.22.65-.41,1-.55.34-.14.71-.21,1.08-.22.37-.01.73.12,1,.37.3.26.48.63.49,1.02v6.09h2.69v-6.33c.07-.94-.17-1.89-.69-2.68-.61-.69-1.52-1.04-2.43-.93Z"/>
  <path class="cls-1" d="m57.31,15.18c-.61.01-1.22.15-1.77.41-.58.27-1.14.61-1.65,1-.23-.42-.58-.77-1-1-.46-.26-.98-.39-1.51-.38-.6-.01-1.2.09-1.76.3-.54.22-1.04.51-1.5.87l-.47-1h-2.17v9.77h2.69v-6.82c.58-.44,1.27-.7,2-.73.37-.01.73.12,1,.37.27.29.4.67.37,1.06v6.09h2.7v-6c-.01-.24-.03-.47-.07-.71.31-.22.65-.41,1-.55.34-.14.71-.21,1.08-.22.71-.07,1.34.46,1.4,1.17,0,.09,0,.18,0,.26v6.09h2.75v-6.37c.07-.95-.18-1.89-.71-2.68-.6-.68-1.48-1.02-2.38-.93Z"/>
  <path class="cls-1" d="m69.42,20.59c.58-.5.88-1.24.81-2,.04-.71-.1-1.41-.39-2.06-.27-.48-.71-.84-1.24-1-.76-.22-1.56-.31-2.35-.29-.89-.04-1.77.11-2.6.44-.63.31-1.1.86-1.32,1.52-.3,1-.44,2.04-.4,3.08-.03,1.02.11,2.03.43,3,.25.66.74,1.21,1.38,1.51.83.32,1.71.47,2.6.43.61,0,1.22-.03,1.82-.11.52-.07,1.1-.17,1.75-.31v-1.59h-2.86c-.5.02-1.01-.04-1.49-.19-.31-.1-.57-.32-.71-.62-.16-.38-.24-.79-.24-1.21h2.46c.83.05,1.65-.16,2.35-.6Zm-4.85-1c-.02-.5.04-1,.17-1.49.07-.3.26-.57.52-.74.72-.31,1.54-.27,2.23.11.28.3.41.71.36,1.12.03.28-.06.56-.25.77-.23.17-.52.26-.81.23h-2.22Z"/>
  <path class="cls-1" d="m75.66,15.65c-.49.33-.91.75-1.25,1.23l-.62-1.49h-2.07v9.77h2.69v-6.12c.3-.34.67-.61,1.08-.8.42-.18.88-.26,1.34-.25.14,0,.52,0,1.15.09v-2.77c-.26-.07-.53-.1-.8-.09-.54-.01-1.07.14-1.52.43Z"/>
  <path class="cls-1" d="m82.65,22.97c-.34-.18-.6-.49-.71-.86-.18-.6-.26-1.22-.23-1.85-.03-.64.05-1.28.23-1.89.11-.38.36-.71.71-.91.42-.19.89-.27,1.35-.25h2.57v-1.55c-1.11-.31-2.26-.46-3.41-.46-.8-.03-1.59.13-2.31.46-.64.33-1.13.89-1.38,1.56-.36.98-.52,2.02-.47,3.06,0,1.82.35,3.1,1.07,3.84.8.77,1.89,1.17,3,1.11.65,0,1.29-.05,1.93-.14.57-.08,1.14-.2,1.69-.37v-1.53h-2.63c-.48.02-.96-.05-1.41-.22Z"/>
  <path class="cls-1" d="m91.32,23.02c-.31-.1-.57-.33-.71-.62-.15-.39-.23-.8-.23-1.21h2.45c.83.05,1.66-.16,2.36-.6.58-.5.88-1.24.81-2,.04-.71-.1-1.41-.39-2.06-.27-.48-.72-.84-1.25-1-.76-.23-1.56-.34-2.36-.33-.88-.04-1.77.11-2.59.44-.63.31-1.1.86-1.32,1.52-.31,1-.44,2.04-.4,3.08-.04,1.02.11,2.03.43,3,.24.68.73,1.23,1.38,1.54.83.32,1.72.47,2.61.43.61,0,1.22-.03,1.82-.11.52-.07,1.1-.17,1.74-.31v-1.58h-2.85c-.51.02-1.01-.04-1.5-.19Zm-.82-4.92c.07-.3.26-.57.52-.74.31-.16.65-.23,1-.21.44-.04.88.07,1.24.32.28.3.41.71.37,1.12.03.28-.06.56-.25.77-.23.17-.52.26-.81.23h-2.23c-.02-.5.04-1,.16-1.49Z"/>
  <path class="cls-1" d="m44.53,27.34v6c0,3.15-.82,5.29-2.44,6.37-1.77,1.18-4.34,1.78-7.62,1.78s-5.86-.6-7.63-1.78-2.44-3.22-2.44-6.37v-6h-1.22v6c0,3.6,1,6.06,3,7.38s4.77,1.99,8.31,2c3.54,0,6.31-.67,8.3-2,1.99-1.33,2.99-3.79,3-7.38v-6h-1.26Z"/>
  <path class="cls-1" d="m30.78,36.46c1.1.71,2.39,1.06,3.69,1,1.3.06,2.59-.29,3.68-1,1.01-.72,1.6-1.91,1.55-3.15v-6h-1.22v6c.05.84-.32,1.65-1,2.15-.9.55-1.95.81-3,.74-1.05.07-2.1-.19-3-.74-.68-.5-1.05-1.31-1-2.15v-6h-1.25v6c-.05,1.24.54,2.43,1.55,3.15Z"/>
  <polygon class="cls-1" points="39.7 13.24 39.7 1.48 44.53 1.48 44.53 13.24 45.75 13.24 45.75 .26 38.48 .26 38.48 13.24 39.7 13.24"/>
  <polygon class="cls-1" points="24.4 13.24 24.4 1.48 29.23 1.48 29.23 13.24 30.45 13.24 30.45 .26 23.18 .26 23.18 13.24 24.4 13.24"/>
  <path class="cls-1" d="m50.51,13.24V1.49h10.66c1.95-.14,3.87.5,5.35,1.77,1.21,1.17,1.83,3.32,1.83,6.38v3.6h1.22v-3.6c0-3.43-.74-5.84-2.21-7.26-1.7-1.49-3.93-2.25-6.19-2.11h-11.88v13l1.22-.03Z"/>
  <path class="cls-1" d="m68.58,28.98c.33-.49.53-1.05.58-1.64h-1.25c-.05.32-.15.62-.31.9l-.08.12c-.56.97-1.37,1.77-2.35,2.32l-1,.55.45,1,4.07,9.08h-4.63l-3.6-8.84-.3-.76h-4.82v9.6h-4.83v-14h-1.22v15.22h7.27v-9.6h2.77l3.9,9.6h7.39l-4.83-10.8c1.15-.66,2.12-1.6,2.79-2.75Z"/>
  <path class="cls-1" d="m73.53,13.24c.06-2.5.35-4.99.87-7.43.56-1.57,1.72-2.85,3.22-3.57,2-.75,4.13-1.09,6.27-1,2.14-.09,4.27.25,6.28,1,1.49.72,2.65,2,3.21,3.56.53,2.45.82,4.94.87,7.44h1.23c-.22-3.57-.54-6.9-1-7.91-.69-1.85-2.07-3.35-3.85-4.2C88.47.29,86.17-.09,83.86,0c-2.31-.09-4.61.29-6.76,1.13-1.78.85-3.16,2.35-3.85,4.2-.43,1-.75,4.34-1,7.91h1.28Z"/>
  <path class="cls-1" d="m94.48,27.34c-.19,4.06-.59,8.44-1.1,9.61-.56,1.56-1.71,2.85-3.21,3.57-2.01.75-4.14,1.09-6.28,1-2.14.09-4.27-.25-6.27-1-1.5-.72-2.66-2-3.22-3.57-.5-1.17-.9-5.55-1.09-9.61h-1.22c.19,4,.58,8.66,1.19,10.09.69,1.85,2.07,3.35,3.85,4.2,2.15.84,4.45,1.22,6.76,1.13,2.31.09,4.61-.29,6.77-1.13,1.78-.85,3.16-2.35,3.85-4.2.6-1.43,1-6.09,1.19-10.09h-1.22Z"/>
</svg>